<svg id="visual" viewBox="0 0 900 600" width="900" height="600" xmlns="http://www.w3.org/2000/svg" xmlns:xlink="http://www.w3.org/1999/xlink" version="1.1"><rect x="0" y="0" width="900" height="600" fill="#ffffff"></rect><defs><linearGradient id="grad1_0" x1="33.3%" y1="0%" x2="100%" y2="100%"><stop offset="20%" stop-color="#ffffff" stop-opacity="1"></stop><stop offset="80%" stop-color="#ffffff" stop-opacity="1"></stop></linearGradient></defs><defs><linearGradient id="grad2_0" x1="0%" y1="0%" x2="66.7%" y2="100%"><stop offset="20%" stop-color="#ffffff" stop-opacity="1"></stop><stop offset="80%" stop-color="#ffffff" stop-opacity="1"></stop></linearGradient></defs><g transform="translate(900, 0)"><path d="M0 324.5C-42.5 321 -85.1 317.5 -124.2 299.8C-163.3 282.1 -199 250.1 -212.8 212.8C-226.7 175.6 -218.8 133.2 -233.7 96.8C-248.7 60.5 -286.6 30.2 -324.5 0L0 0Z" fill="#715DF2"></path></g><g transform="translate(0, 600)"><path d="M0 -324.5C43.4 -322 86.8 -319.4 124.2 -299.8C161.6 -280.2 193.1 -243.5 205.8 -205.8C218.5 -168.1 212.5 -129.4 229.1 -94.9C245.8 -60.4 285.1 -30.2 324.5 0L0 0Z" fill="#715DF2"></path></g></svg>